<svg xmlns="http://www.w3.org/2000/svg" viewBox="0 0 192 192" fill="none">
  <rect width="192" height="192" fill="#6B705C"/>
  <path d="M96 24C56.2355 24 24 56.2355 24 96C24 135.764 56.2355 168 96 168C135.764 168 168 135.764 168 96C168 56.2355 135.764 24 96 24Z" fill="#FDFBF7" opacity="0.1"/>
  <path d="M129.5 62.5C129.5 62.5 110.5 53 84.5 68.5C58.5 84 57 108.5 57 108.5C57 108.5 76 118 102 102.5C128 87 129.5 62.5 129.5 62.5Z" fill="#FDFBF7"/>
  <path d="M68 128C68 128 80.5 118.5 90.5 101.5C100.5 84.5 106.5 69.5 106.5 69.5" stroke="#6B705C" stroke-width="8" stroke-linecap="round"/>
</svg>
