<svg xmlns="http://www.w3.org/2000/svg" viewBox="0 0 512 512" fill="none">
  <rect width="512" height="512" fill="#6B705C"/>
  <path d="M256 64C149.961 64 64 149.961 64 256C64 362.039 149.961 448 256 448C362.039 448 448 362.039 448 256C448 149.961 362.039 64 256 64Z" fill="#FDFBF7" opacity="0.1"/>
  <path d="M345.333 166.667C345.333 166.667 294.667 141.333 225.333 182.667C156 224 152 289.333 152 289.333C152 289.333 202.667 314.667 272 273.333C341.333 232 345.333 166.667 345.333 166.667Z" fill="#FDFBF7"/>
  <path d="M181.333 341.333C181.333 341.333 214.667 316 241.333 270.667C268 225.333 284 185.333 284 185.333" stroke="#6B705C" stroke-width="21" stroke-linecap="round"/>
</svg>
