<svg xmlns="http://www.w3.org/2000/svg" xmlns:xlink="http://www.w3.org/1999/xlink" width="2000" zoomAndPan="magnify" viewBox="0 0 1500 1499.999933" height="2000" preserveAspectRatio="xMidYMid meet" version="1.0"><path fill="#b79886" d="M 1016.109375 728.929688 C 1001.890625 663.585938 974.042969 626.660156 957.722656 609.761719 C 958.542969 629.691406 959.839844 671.925781 959.371094 730.359375 L 1016.109375 728.929688 " fill-opacity="1" fill-rule="nonzero"/><path fill="#b79886" d="M 1501.761719 744.425781 L 1133.78125 735.164062 C 1125.445312 810.117188 1085.867188 873.703125 1085.867188 873.703125 C 1117.800781 814.441406 1105.273438 766.144531 1086.679688 733.972656 L 1034.492188 732.652344 C 1027.945312 748.816406 1021.832031 762.6875 1021.832031 762.6875 C 1020.511719 751.90625 1018.796875 741.785156 1016.816406 732.21875 L 959.371094 730.765625 C 958.515625 839.78125 951.515625 1005.007812 923.886719 1187.339844 L 1369.890625 1176.105469 C 1453.089844 1055.210938 1501.839844 908.769531 1501.839844 750.933594 C 1501.839844 748.757812 1501.78125 746.589844 1501.761719 744.425781 " fill-opacity="1" fill-rule="nonzero"/><path fill="#b79886" d="M 1036.203125 728.417969 L 1082.546875 727.25 C 1067.125 703.398438 1049.585938 690.109375 1049.585938 690.109375 C 1047.679688 698.679688 1041.957031 714.03125 1036.203125 728.417969 " fill-opacity="1" fill-rule="nonzero"/><path fill="#b79886" d="M 1269.464844 491.574219 C 1237.445312 474.496094 1216.101562 491.574219 1216.101562 491.574219 C 1324.972656 527.867188 1333.519531 643.148438 1333.519531 643.148438 C 1297.21875 566.300781 1186.203125 557.75 1186.203125 557.75 L 1207.5625 604.71875 C 1173.40625 564.152344 1053.851562 557.75 1053.851562 557.75 C 1123.007812 603.246094 1139 667.34375 1134.628906 725.941406 L 1501.027344 716.703125 C 1496.851562 623.5625 1475.710938 534.835938 1440.59375 453.546875 L 1222.144531 448.050781 C 1254.550781 466.515625 1269.464844 491.574219 1269.464844 491.574219 " fill-opacity="1" fill-rule="nonzero"/><path fill="#b79886" d="M 858.015625 1494.191406 C 1058.65625 1465.53125 1233.738281 1357.597656 1350.457031 1203.082031 L 923.132812 1192.308594 C 908.132812 1290.167969 887.167969 1392.769531 858.015625 1494.191406 " fill-opacity="1" fill-rule="nonzero"/><path fill="#b79886" d="M 708.011719 741.347656 C 693.070312 749.882812 624.757812 801.121094 624.757812 801.121094 C 599.136719 743.480469 759.246094 591.90625 759.246094 591.90625 C 714.417969 589.769531 658.910156 655.957031 658.910156 655.957031 C 658.910156 634.601562 682.394531 589.769531 682.394531 589.769531 C 635.429688 617.523438 562.84375 764.835938 562.84375 764.835938 C 522.28125 670.898438 590.597656 544.945312 590.597656 544.945312 L 526.554688 573.328125 C 614.078125 418.132812 840.371094 461.683594 840.371094 461.683594 C 831.851562 451.160156 820.578125 443.34375 807.886719 437.609375 L 794.914062 437.277344 L 806.429688 436.980469 C 752.304688 413.339844 673.851562 426.257812 673.851562 426.257812 L 735.765625 397.644531 C 690.9375 369.890625 577.785156 426.257812 577.785156 426.257812 C 637.5625 326.777344 746.4375 318.652344 746.4375 318.652344 L 675.988281 310.105469 C 880.929688 182.019531 923.628906 426.257812 923.628906 426.257812 C 921.496094 305.417969 1047.457031 273.929688 1047.457031 273.929688 L 1030.378906 307.976562 C 1162.730469 220.449219 1226.769531 329.332031 1226.769531 329.332031 C 1130.710938 290.898438 1096.546875 369.890625 1096.546875 369.890625 L 1158.464844 382.703125 C 1109.511719 387.042969 1073.332031 409.6875 1049.585938 430.867188 L 1425.804688 421.394531 C 1303.734375 171.882812 1047.425781 0.03125 750.9375 0.03125 C 378.832031 0.03125 69.992188 270.714844 10.457031 625.90625 L 367.835938 634.902344 L 7.652344 643.988281 C 2.671875 678.921875 0.0351562 714.621094 0.0351562 750.933594 C 0.0351562 812.160156 7.417969 871.644531 21.242188 928.625 L 711.921875 946.015625 C 675.003906 862.980469 708.011719 741.347656 708.011719 741.347656 " fill-opacity="1" fill-rule="nonzero"/><path fill="#b79886" d="M 893.695312 634.40625 L 889.480469 637.382812 C 846.765625 648.6875 829.695312 781.914062 829.695312 781.914062 L 797.675781 752.03125 C 765.65625 775.5 799.804688 869.441406 799.804688 869.441406 L 774.1875 837.421875 C 757.996094 851.113281 755.625 904.804688 756.453125 947.140625 L 790.148438 947.996094 L 756.480469 948.835938 C 757.109375 978.273438 759.246094 1001.792969 759.246094 1001.792969 C 738.277344 988.949219 723.734375 970.746094 713.757812 949.921875 L 31.679688 967.097656 C 119.835938 1260.824219 382.988281 1478.730469 700.035156 1499.96875 C 799.582031 1290.9375 930.625 945.476562 893.695312 634.40625 " fill-opacity="1" fill-rule="nonzero"/></svg>